<svg width="100%" height="29px" viewBox="0 0 148 29" fill="none" xmlns="http://www.w3.org/2000/svg"><title>Advance Auto Parts Logo</title><g clip-path="url(#clip0_165_2790)"><path d="M33.7079 15.4956L32.1086 18.0059H25.7473L36.8149 0.314453H44.0355L45.1335 18.0098H39.17L39.0109 15.4995H33.7079V15.4956ZM38.6091 7.63847L36.1306 11.6008H38.8478L38.6091 7.63847Z" fill="black"></path><path d="M82.7799 15.4956L81.1806 18.0059H74.8193L85.8869 0.314453H93.1075L94.2055 18.0098H88.2421L88.0829 15.4995H82.7799V15.4956ZM87.6811 7.63847L85.2026 11.6008H87.9198L87.6811 7.63847Z" fill="black"></path><path d="M48.7338 0.314453H54.6018C57.6532 0.314453 59.9049 1.25333 61.4524 2.80088C62.9085 4.25693 63.7519 6.27392 63.7519 8.52562C63.7519 11.7401 62.3435 14.4175 60.1396 16.1042C58.5443 17.3256 56.5273 18.0059 53.7783 18.0059H46.3628L48.7338 0.314453ZM56.8535 6.78712C56.3125 6.24607 55.5646 5.94372 54.2 5.94372H54.0369L53.1696 12.3726H53.7783C55.0673 12.3726 55.8192 12.1379 56.3841 11.6923C57.1797 11.0598 57.6969 10.097 57.6969 8.92345C57.6969 8.05619 57.3906 7.32816 56.8535 6.78712Z" fill="black"></path><path d="M70.6979 0.314453L71.1674 9.373L76.8245 0.314453H83.6751L72.6115 18.0098H65.7967L64.7146 0.314453H70.6979Z" fill="black"></path><path d="M112.892 17.9736H106.415L102.357 9.69086L101.255 17.9736H95.3872L97.7543 0.282227H104.231L108.289 8.56501L109.391 0.282227H115.259L112.888 17.9776L112.892 17.9736Z" fill="black"></path><path d="M115.442 9.81037C115.442 7.46318 116.357 4.97676 117.904 3.21836C119.687 1.20137 122.268 0.00390625 125.224 0.00390625C127.007 0.00390625 128.626 0.401734 129.895 1.22524L129.119 7.1847C128.252 6.29357 126.983 5.63715 125.459 5.63715C124.214 5.63715 123.136 6.15433 122.432 6.99772C121.891 7.65414 121.564 8.56915 121.564 9.41652C121.564 11.4574 123.255 12.7941 125.459 12.7941C126.609 12.7941 127.667 12.44 128.487 11.8313L127.711 17.6754C126.7 18.0971 125.598 18.308 124.425 18.308C119.472 18.308 115.438 14.7633 115.438 9.81435L115.442 9.81037Z" fill="black"></path><path d="M143.023 0.282299L142.39 5.02043H136.877L136.618 6.87431H142.132L141.547 11.3817H136.033L135.775 13.2356H141.288L140.656 17.9737H129.322L131.693 0.27832H143.027L143.023 0.282299Z" fill="black"></path><path d="M22.6046 18.0059H19.418L30.4736 0.314453H33.6602L22.6046 18.0059Z" fill="#FFCC00"></path><path d="M27.2712 0.314453H20.898L18.8253 3.62836L17.2141 6.21027H23.5873L27.2712 0.314453Z" fill="black"></path><path d="M10.8407 6.21045L7.15283 12.1063H13.526L13.9875 11.3703L17.2139 6.21045H10.8407Z" fill="black"></path><path d="M8.13568 0.314453H2.29955L1.53174 6.21027H4.4518H8.95521H10.8409L13.5103 1.93361L14.5248 0.314453H8.13568Z" fill="black"></path><path d="M16.2155 18.0057L18.4433 14.4412L19.8994 12.106H13.5262L9.84229 18.0057H16.2155Z" fill="black"></path><path d="M0 18.0057H3.46906L5.15983 15.3005L7.15295 12.106H0.767808L0 18.0057Z" fill="black"></path><path d="M74.4855 27.5853L74.0837 28.7231H71.3108L74.1791 20.7148H77.2146L80.0829 28.7231H77.3021L76.9003 27.5853H74.4894H74.4855ZM75.6949 23.7861L74.9629 25.823H76.4269L75.6949 23.7861Z" fill="black"></path><path d="M80.7432 27.8638C80.2022 27.3347 79.8918 26.6107 79.8918 25.5803V20.7148H82.6329V25.4172C82.6329 26.0338 83.0029 26.3401 83.524 26.3401C84.0452 26.3401 84.4151 26.0338 84.4151 25.4172V20.7148H87.1562V25.5803C87.1562 26.6107 86.8499 27.3307 86.3048 27.8638C85.6484 28.5003 84.6896 28.8942 83.524 28.8942C82.3584 28.8942 81.3996 28.5003 80.7432 27.8638Z" fill="black"></path><path d="M87.8127 23.2649V20.7148H93.6966V23.2649H92.1252V28.7231H89.3842V23.2649H87.8127Z" fill="black"></path><path d="M93.9194 24.7211C93.9194 22.3222 95.7136 20.5479 98.1762 20.5479C100.639 20.5479 102.433 22.3222 102.433 24.7211C102.433 27.12 100.639 28.8943 98.1762 28.8943C95.7136 28.8943 93.9194 27.12 93.9194 24.7211ZM99.6959 24.7211C99.6959 23.7862 99.0474 23.0979 98.1762 23.0979C97.3049 23.0979 96.6565 23.7862 96.6565 24.7211C96.6565 25.656 97.2811 26.3442 98.1762 26.3442C99.0713 26.3442 99.6959 25.656 99.6959 24.7211Z" fill="black"></path><path d="M108.937 20.7148C109.98 20.7148 110.688 21.0132 111.209 21.5344C111.718 22.0436 112.028 22.7676 112.028 23.5951C112.028 24.4226 111.722 25.1466 111.209 25.6559C110.688 26.177 109.976 26.4754 108.937 26.4754H107.927V28.7271H105.186V20.7188H108.933L108.937 20.7148ZM109.085 24.1123C109.212 23.9969 109.287 23.806 109.287 23.5911C109.287 23.3763 109.212 23.1893 109.085 23.07C108.937 22.9427 108.766 22.8591 108.341 22.8591H107.927V24.3231H108.341C108.766 24.3231 108.933 24.2396 109.085 24.1123Z" fill="black"></path><path d="M114.268 27.5853L113.866 28.7231H111.094L113.962 20.7148H116.997L119.866 28.7231H117.085L116.683 27.5853H114.272H114.268ZM115.478 23.7861L114.746 25.823H116.21L115.478 23.7861Z" fill="black"></path><path d="M122.953 26.0258V28.7231H120.212V20.7148H124.214C125.193 20.7148 125.861 21.0013 126.327 21.4707C126.816 21.96 127.09 22.6165 127.09 23.3803C127.09 24.3589 126.537 25.2501 125.646 25.5564L127.631 28.7191H124.564L122.949 26.0219L122.953 26.0258ZM123.518 24.3271C124.071 24.3271 124.357 24.0288 124.357 23.5951C124.357 23.1615 124.071 22.8631 123.518 22.8631H122.957V24.3271H123.518Z" fill="black"></path><path d="M127.595 23.2649V20.7148H133.479V23.2649H131.908V28.7231H129.167V23.2649H127.595Z" fill="black"></path><path d="M133.806 28.1184L133.595 27.9911L134.53 25.9742C135.305 26.5351 136.017 26.73 136.515 26.73C137.012 26.73 137.342 26.5908 137.342 26.2725C137.342 25.9105 136.833 25.8389 136.324 25.7315L135.898 25.6479C134.74 25.4132 133.957 24.6931 133.957 23.4281C133.957 21.793 135.381 20.5518 137.207 20.5518C138.098 20.5518 138.926 20.7547 139.618 21.0809L139.884 21.2082L138.961 23.2371C138.56 22.9507 137.899 22.7159 137.41 22.7159C137.008 22.7159 136.654 22.8114 136.654 23.1098C136.654 23.4082 137.056 23.4599 137.513 23.5554L137.875 23.6309C139.148 23.8975 140.083 24.5221 140.083 26.01C140.083 27.657 138.639 28.8982 136.781 28.8982C135.612 28.8982 134.613 28.6118 133.81 28.1224L133.806 28.1184Z" fill="black"></path><path d="M144.463 2.55822H144.093V0.604884H143.425V0.286621H145.132V0.604884H144.463V2.55822Z" fill="black"></path><path d="M146.46 2.55822L145.8 0.660579H145.788C145.804 0.943037 145.816 1.2056 145.816 1.45226V2.55822H145.478V0.286621H146.003L146.635 2.09276H146.643L147.292 0.286621H147.817V2.55822H147.459V1.43634C147.459 1.32495 147.459 1.17776 147.467 0.994755C147.475 0.811754 147.479 0.704341 147.483 0.664558H147.471L146.791 2.55822H146.464H146.46Z" fill="black"></path></g><defs><clipPath id="clip0_165_2790"><rect width="148" height="28.8943" fill="black"></rect></clipPath></defs></svg>