<svg version="1.1" id="Layer_1" xmlns="http://www.w3.org/2000/svg" xmlns:xlink="http://www.w3.org/1999/xlink" x="0px" y="0px" viewBox="0 0 284.3 64.1" style="enable-background:new 0 0 284.3 64.1;" xml:space="preserve">
 <style type="text/css">
  .st0{fill:#6CB86A;}
 </style>
 <g>
  <path class="st0" d="M66.2,20.8C68.3,11,62.6,0.6,50.2,0.6H30.9l-3.2,15h14.5c3,0,4.9,2.4,4.2,5.4c-0.6,3-3.5,5.3-6.5,5.3H25.3
		L45,62.8h20.7L52.4,38.3C55.9,36.3,64,31,66.2,20.8">
  </path>
  <path class="st0" d="M3.4,46.7L0,62.8h17.6l7.7-36.5C14.6,26.7,6.2,33.8,3.4,46.7">
  </path>
  <path class="st0" d="M15,16.5c4.6,0,8.3-3.7,8.3-8.3C23.3,3.7,19.6,0,15,0c-4.6,0-8.3,3.7-8.3,8.3C6.7,12.8,10.4,16.5,15,16.5">
  </path>
  <path class="st0" d="M269.1,0.6h-16.6L244,41.2c-2.5,11.9,6,22.9,25.8,22.9c0.2,0,0.5,0,0.5,0l3.4-15.9c-6.3,0.9-14.3-1.4-12.9-8.2
		l2.2-10.1h14.6l3-14.2h-14.6L269.1,0.6z">
  </path>
  <path class="st0" d="M158.1,15.8c-3.3,0-9,0.8-10.9,1.9l3.6-17.1h-16.6L125.8,40c-3,13.9,6.5,24.1,22.1,24.1
		c17.5,0,29.1-7.5,32.4-23.1C183.5,26,172.4,15.8,158.1,15.8 M163.9,40c-1.3,6-6.2,10.1-13.1,10.1c-6.9,0-9.7-4.4-8.3-10.5
		c1.3-6.2,5.8-9.7,12.7-9.7C162.1,29.8,165.2,34,163.9,40">
  </path>
  <path class="st0" d="M217.3,15.8c-15.7,0-29.3,9.3-32.4,24.1c-3.1,14.9,6.6,24.1,21.9,24.1c18.8,0,29.8-9.3,32.9-24.1
		C242.7,25.1,233,15.8,217.3,15.8 M223,40c-1.3,6-6,10.1-12.9,10.1c-6.9,0-9.9-4.1-8.6-10.3c1.3-6.2,5.9-10,12.9-10
		C221.2,29.8,224.3,34,223,40">
  </path>
  <path class="st0" d="M98.8,15.8c-15.7,0-29.3,9.3-32.4,24.1C63.3,54.9,73,64.1,88.3,64.1c18.8,0,29.8-9.3,32.9-24.1
		C124.3,25.1,114.5,15.8,98.8,15.8 M104.5,40c-1.3,6-6,10.1-12.9,10.1c-6.9,0-9.9-4.1-8.6-10.3c1.3-6.2,5.9-10,12.9-10
		C102.8,29.8,105.8,34,104.5,40">
  </path>
  <path class="st0" d="M279.3,1.2c2.8,0,5.1,2.3,5.1,5.1c0,2.8-2.3,5.1-5.1,5.1c-2.8,0-5.1-2.3-5.1-5.1
		C274.2,3.5,276.5,1.2,279.3,1.2 M279.3,10.5c2.3,0,4.2-1.9,4.2-4.2c0-2.3-1.9-4.2-4.2-4.2C277,2,275,4,275,6.3
		C275,8.6,277,10.5,279.3,10.5 M282,9.1h-1l-1.8-2.3h-0.9v2.3h-0.9V3.3h2c1.6,0,2.1,0.9,2.1,1.7c0,0.9-0.6,1.5-1.4,1.6L282,9.1z
		 M279.3,4.1h-1.1V6h1.1c0.8,0,1.2-0.3,1.2-1C280.5,4.7,280.4,4.1,279.3,4.1">
  </path>
 </g>
</svg>