<svg version="1.1" id="Layer_1" xmlns:x="ns_extend;" xmlns:i="ns_ai;" xmlns:graph="ns_graphs;" xmlns="http://www.w3.org/2000/svg" xmlns:xlink="http://www.w3.org/1999/xlink" x="0px" y="0px" viewBox="0 0 1317.4 177" style="enable-background:new 0 0 1317.4 177;" xml:space="preserve">
 <style type="text/css">
  .st0{fill-rule:evenodd;clip-rule:evenodd;fill:#D63426;}
	.st1{filter:url(#Adobe_OpacityMaskFilter);}
	.st2{fill-rule:evenodd;clip-rule:evenodd;fill:#FFFFFF;}
	.st3{mask:url(#mask-2_1_);fill-rule:evenodd;clip-rule:evenodd;fill:#D63426;}
 </style>
 <metadata>
  <sfw xmlns="ns_sfw;">
   <slices>
   </slices>
   <sliceSourceBounds bottomLeftOrigin="true" height="177" width="1317.4" x="-668.1" y="0.8">
   </sliceSourceBounds>
  </sfw>
 </metadata>
 <desc>
  Created with Sketch.
 </desc>
 <g id="Symbols">
  <g id="Page-1" transform="translate(0.000000, -1.000000)">
   <polygon id="Fill-1" class="st0" points="115.6,1 81.6,68.1 81.2,68.1 79.7,1 26,1 0,125.8 35.6,125.8 52.8,39.8 53.1,39.8 
			57.7,125.8 86.1,125.8 127,39.8 127.4,39.8 108.1,125.8 143.8,125.8 170.3,1 		">
   </polygon>
   <path id="Fill-2" class="st0" d="M148.6,125.8h32.5l8-14.8h33.8l1.7,14.8H256L239.9,22.1h-31.4L148.6,125.8z M216.8,57.7h0.3
			l3.5,31.1h-19.9L216.8,57.7z">
   </path>
   <polygon id="Fill-3" class="st0" points="265.3,125.8 297.2,125.8 313.2,48.7 341.9,48.7 347.5,22.1 258,22.1 252.5,48.7 
			281.3,48.7 		">
   </polygon>
   <polygon id="Fill-4" class="st0" points="362.3,125.8 394.2,125.8 410.2,48.7 438.9,48.7 444.5,22.1 355,22.1 349.5,48.7 
			378.3,48.7 		">
   </polygon>
   <g id="Group-26" transform="translate(212.000000, 0.237800)">
    <path id="Fill-5" class="st0" d="M266.1,46.6h17.3c8.3,0,10.7,4.9,10.7,9c0,6.2-4.9,11.6-15.5,11.6h-16.8L266.1,46.6z
				 M218.2,125.5h31.4l7.6-36.1h13.8c8.9,0,12.9,4.1,12.9,9.4c0,5.2-1.6,11.6-1.6,16.5c0,4.6,0.1,7.5,1.3,10.2h30.5
				c-2.6-6.1-1.5-16.7-1.5-26.4c0-9.7-1.3-18.6-10.7-21.2v-0.3c15-2.5,24.2-13.5,24.2-28.6c0-21.9-14.7-27.2-33.8-27.2h-52.6
				L218.2,125.5z">
    </path>
    <polygon id="Fill-7" class="st0" points="321.5,125.5 408.3,125.5 413.8,99 358.9,99 361.7,86 411.6,86 416.7,61.4 366.9,61.4 
				369.7,48.4 423.4,48.4 428.7,21.9 343.1,21.9 			">
    </polygon>
    <path id="Fill-9" class="st0" d="M516,53.2c0.6-25.6-19.3-33.8-41.4-33.8c-20.9,0-43.5,10.7-43.5,34.1c0,17.3,12.2,24,24.8,28.2
				c14.4,4.8,25,5.8,25,13.4c0,6.8-7.7,10-13.9,10c-5.2,0-9-0.3-11.8-2.6c-2.6-2.6-3.9-6.1-3.9-11.8h-30.9
				c-1.3,26.4,20.2,37.3,44,37.3c22.5,0,46.7-11.8,46.7-36.7c0-12.3-6.1-22.2-24.1-28.6c-10.2-3.6-25.7-4.1-25.7-11.9
				c0-6.8,7-8.4,12.3-8.4c3.6,0,7,0.6,9.3,2.3c2.3,1.7,3.8,4.4,3.6,8.6H516z">
    </path>
    <path id="Fill-11" class="st0" d="M611.4,53.2c0.6-25.6-19.3-33.8-41.4-33.8c-20.9,0-43.5,10.7-43.5,34.1
				c0,17.3,12.2,24,24.8,28.2c14.4,4.8,25,5.8,25,13.4c0,6.8-7.7,10-13.9,10c-5.2,0-9-0.3-11.8-2.6c-2.6-2.6-3.9-6.1-3.9-11.8h-30.9
				c-1.3,26.4,20.2,37.3,44,37.3c22.5,0,46.7-11.8,46.7-36.7c0-12.3-6.1-22.2-24.1-28.6c-10.2-3.6-25.7-4.1-25.7-11.9
				c0-6.8,7-8.4,12.3-8.4c3.6,0,7,0.6,9.3,2.3c2.3,1.7,3.8,4.4,3.6,8.6H611.4z">
    </path>
    <polygon id="Fill-13" class="st0" points="618.4,125.5 656.9,125.5 666.8,78 715.9,78 722,48.3 672.9,48.3 676.2,32.8 
				734.1,32.8 740.7,0.8 644.4,0.8 			">
    </polygon>
    <polygon id="Fill-15" class="st0" points="725,125.5 763.4,125.5 789.3,0.8 750.8,0.8 			">
    </polygon>
    <path id="Fill-17" class="st0" d="M839,30.5h20.8c10,0,12.9,5.9,12.9,10.8c0,7.5-5.9,14-18.7,14h-20.3L839,30.5z M781.4,125.5
				h37.7l9.1-43.5h16.6c10.7,0,15.6,4.9,15.6,11.4c0,6.3-1.9,14-1.9,19.9c0,5.6,0.2,9.1,1.6,12.2h36.7c-3.1-7.3-1.8-20.1-1.8-31.8
				c0-11.7-1.6-22.4-12.9-25.5v-0.4c18-3,29.2-16.2,29.2-34.4c0-26.4-17.6-32.7-40.7-32.7h-63.2L781.4,125.5z">
    </path>
    <polygon id="Fill-19" class="st0" points="909.1,125.5 944.7,125.5 961.8,39.6 962.2,39.6 966.7,125.5 995.2,125.5 1036,39.6 
				1036.4,39.6 1017.2,125.5 1052.8,125.5 1079.4,0.8 1024.7,0.8 990.6,67.9 990.3,67.9 988.7,0.8 935.1,0.8 			">
    </polygon>
    <path id="Fill-21" class="st0" d="M614.1,148.9c0,0,108.8-12.4,243.8-14.8c135.8-2.4,192,8.7,192,8.7l-2.9,15.1
				c0,0-55.3-10.8-188.8-8.4c-134.3,2.4-258.1,28.3-258.1,28.3L614.1,148.9z">
    </path>
    <g id="Group-25" transform="translate(425.000000, 0.000000)">
     <g id="Clip-24">
     </g>
     <defs>
      <filter id="Adobe_OpacityMaskFilter" filterUnits="userSpaceOnUse" x="657.1" y="0.8" width="23.3" height="23.2">
       <feColorMatrix type="matrix" values="1 0 0 0 0  0 1 0 0 0  0 0 1 0 0  0 0 0 1 0">
       </feColorMatrix>
      </filter>
     </defs>
     <mask maskUnits="userSpaceOnUse" x="657.1" y="0.8" width="23.3" height="23.2" id="mask-2_1_">
      <g class="st1">
       <polygon id="path-1_1_" class="st2" points="657.1,0.8 680.4,0.8 680.4,23.9 657.1,23.9 						">
       </polygon>
      </g>
     </mask>
     <path id="Fill-23" class="st3" d="M666.3,11.6h2.2c1.9,0,3.6-0.1,3.6-2.2c0-1.8-1.6-2.1-3-2.1h-2.8V11.6z M664.2,5.6h5.2
					c3.2,0,4.7,1.3,4.7,3.9c0,2.4-1.5,3.5-3.6,3.7l3.9,6h-2.3l-3.7-5.8h-2.2v5.8h-2.1V5.6z M668.7,22.2c5.4,0,9.5-4.3,9.5-9.9
					c0-5.5-4.1-9.8-9.5-9.8c-5.4,0-9.6,4.3-9.6,9.8C659.2,18,663.3,22.2,668.7,22.2z M668.7,0.8c6.3,0,11.6,5,11.6,11.5
					c0,6.7-5.3,11.7-11.6,11.7c-6.3,0-11.7-5-11.7-11.7C657.1,5.8,662.4,0.8,668.7,0.8z">
     </path>
    </g>
   </g>
  </g>
 </g>
</svg>